<?xml version="1.0" standalone="no"?>
<!DOCTYPE svg PUBLIC "-//W3C//DTD SVG 20010904//EN"
 "http://www.w3.org/TR/2001/REC-SVG-20010904/DTD/svg10.dtd">
<svg version="1.0" xmlns="http://www.w3.org/2000/svg"
 width="800.000000pt" height="800.000000pt" viewBox="0 0 800.000000 800.000000"
 preserveAspectRatio="xMidYMid meet">

<g transform="translate(0.000000,800.000000) scale(0.100000,-0.100000)"
fill="#000000" stroke="none">
<path d="M3480 7885 c0 -10 -10 -15 -27 -15 -25 0 -86 -20 -168 -56 -16 -7
-37 -15 -45 -19 -8 -3 -33 -17 -55 -30 -22 -14 -50 -29 -62 -35 -13 -5 -23
-14 -23 -20 0 -6 -8 -14 -17 -17 -43 -16 -233 -240 -233 -273 0 -6 -9 -27 -20
-47 -11 -21 -20 -43 -20 -49 0 -7 -7 -25 -15 -40 -8 -16 -15 -42 -15 -59 0
-16 -4 -46 -10 -65 -5 -19 -11 -57 -14 -83 -2 -27 -7 -51 -10 -55 -4 -3 -125
-4 -270 -3 -273 3 -468 -10 -546 -35 -25 -8 -60 -14 -78 -14 -18 0 -45 -6 -60
-14 -15 -8 -46 -18 -67 -22 -22 -4 -49 -13 -60 -20 -11 -8 -27 -14 -37 -14
-10 0 -35 -9 -55 -20 -21 -11 -45 -20 -54 -20 -9 0 -22 -7 -29 -15 -7 -8 -23
-15 -36 -15 -12 0 -25 -4 -29 -9 -3 -5 -34 -24 -70 -41 -36 -17 -65 -36 -65
-41 0 -5 -6 -9 -14 -9 -50 0 -396 -321 -396 -368 0 -6 -6 -15 -13 -19 -18 -12
-57 -70 -57 -86 0 -8 -7 -20 -15 -27 -8 -7 -15 -18 -15 -25 0 -7 -9 -24 -20
-38 -11 -14 -20 -34 -20 -45 0 -11 -6 -25 -14 -31 -8 -7 -17 -28 -21 -49 -4
-20 -13 -49 -21 -64 -8 -15 -14 -39 -14 -53 0 -15 -5 -36 -11 -47 -11 -21 -36
-186 -46 -311 -10 -121 28 -201 125 -268 42 -28 46 -29 167 -29 75 0 126 -4
130 -10 4 -6 11 -50 16 -98 5 -48 16 -112 24 -142 8 -30 15 -69 15 -87 0 -18
6 -59 14 -91 8 -31 20 -91 25 -132 24 -163 40 -257 50 -290 6 -19 11 -53 11
-76 0 -22 6 -62 14 -88 8 -26 18 -78 21 -114 4 -37 13 -89 21 -116 8 -27 14
-69 14 -92 0 -23 6 -64 14 -90 8 -27 19 -83 25 -124 18 -120 31 -200 47 -275
8 -38 14 -83 14 -100 0 -16 9 -66 20 -110 11 -44 20 -98 20 -120 0 -22 7 -58
15 -80 8 -22 14 -59 15 -82 0 -23 9 -79 20 -125 11 -46 20 -99 20 -119 0 -20
7 -56 15 -79 8 -23 15 -61 15 -84 0 -22 5 -59 11 -81 6 -22 17 -80 24 -130 27
-167 36 -220 51 -292 8 -39 18 -97 21 -130 3 -32 11 -77 19 -101 8 -23 14 -62
14 -85 0 -23 5 -58 11 -77 5 -19 17 -75 24 -125 19 -119 34 -209 46 -270 5
-27 14 -86 19 -130 6 -43 17 -99 25 -122 8 -24 15 -63 15 -86 0 -23 6 -71 15
-107 8 -36 18 -92 24 -125 23 -147 33 -204 47 -265 8 -36 14 -78 14 -93 0 -53
81 -177 117 -177 7 0 13 -7 13 -15 0 -13 229 -15 2000 -15 1771 0 2000 2 2000
15 0 8 6 15 13 15 36 0 117 124 117 177 0 15 6 57 14 93 14 61 24 118 47 265
6 33 16 89 24 125 9 36 15 81 15 100 0 19 9 71 20 115 11 44 20 96 20 116 0
20 7 58 15 85 8 27 15 67 15 89 0 22 5 58 11 80 6 22 17 81 24 130 8 50 19
106 24 125 6 19 11 54 11 77 0 23 6 62 14 85 8 24 16 69 19 101 3 33 13 91 21
130 17 80 30 158 50 293 7 50 16 96 20 102 3 6 10 48 16 94 5 45 14 101 19
123 10 39 19 93 41 240 6 39 16 90 21 115 6 25 14 77 19 115 5 39 16 97 24
130 9 32 16 76 16 96 0 19 7 58 15 85 8 27 15 67 15 89 0 23 7 67 15 99 9 32
20 91 25 130 5 39 14 94 19 121 11 53 22 123 45 270 8 50 19 106 25 125 6 19
11 53 11 75 0 22 5 56 11 75 10 33 26 127 50 290 5 41 17 101 25 132 8 32 14
73 14 91 0 18 7 57 15 87 8 30 19 94 24 142 5 48 12 92 16 98 4 6 55 10 130
10 116 0 126 2 162 25 61 41 101 91 119 149 15 47 16 64 5 125 -6 39 -14 113
-18 164 -3 50 -12 104 -19 119 -8 15 -14 40 -14 56 0 17 -9 49 -20 73 -11 24
-20 54 -20 65 0 12 -7 27 -15 34 -8 7 -15 23 -15 35 0 12 -6 28 -14 34 -8 7
-18 25 -21 41 -3 16 -13 34 -21 41 -8 6 -14 15 -14 20 0 9 -40 69 -114 169
-47 64 -162 177 -220 217 -22 16 -54 41 -70 56 -17 15 -41 30 -53 33 -12 3
-24 12 -27 20 -3 8 -13 14 -22 14 -9 0 -27 9 -41 20 -14 11 -31 20 -38 20 -7
0 -18 7 -25 15 -7 8 -23 15 -35 15 -12 0 -28 7 -35 15 -7 8 -20 15 -29 15 -9
0 -33 9 -54 20 -20 11 -45 20 -55 20 -10 0 -27 7 -38 15 -10 8 -28 15 -39 15
-11 1 -38 8 -60 16 -22 9 -62 19 -90 24 -27 4 -70 12 -95 18 -95 23 -267 34
-526 31 -257 -2 -268 -2 -275 17 -9 25 -29 157 -29 192 0 15 -6 36 -14 47 -7
11 -17 35 -21 53 -10 46 -70 159 -113 212 -50 62 -139 150 -151 150 -6 0 -14
7 -19 16 -9 16 -33 32 -88 57 -17 8 -35 20 -38 26 -4 6 -18 11 -30 11 -13 0
-29 7 -36 15 -7 8 -21 15 -32 15 -10 0 -36 9 -58 20 -22 11 -53 20 -70 20 -20
0 -30 5 -30 15 0 13 -66 15 -530 15 -464 0 -530 -2 -530 -15z m1007 -458 c18
-9 40 -17 50 -17 24 0 132 -71 176 -116 53 -55 97 -164 97 -240 l0 -34 -800 0
-800 0 0 39 c0 56 36 158 72 205 67 88 191 158 313 176 28 5 232 7 455 6 363
-1 408 -3 437 -19z m1452 -872 c134 -22 269 -59 366 -101 166 -71 273 -141
370 -239 73 -75 126 -143 144 -185 6 -14 15 -32 20 -40 25 -41 51 -103 51
-123 0 -13 4 -27 9 -33 14 -14 31 -83 24 -100 -8 -21 -5818 -21 -5826 0 -7 17
11 97 24 110 5 6 9 18 9 29 0 27 68 163 117 233 111 159 323 304 558 382 80
26 141 41 255 62 88 16 233 17 1939 19 1623 1 1856 -1 1940 -14z m587 -1317
c-4 -13 -11 -58 -17 -102 -5 -43 -12 -83 -15 -88 -4 -6 -12 -49 -19 -96 -7
-48 -18 -115 -24 -149 -6 -35 -16 -91 -22 -125 -6 -35 -15 -90 -20 -123 -4
-33 -15 -94 -23 -135 -18 -89 -36 -193 -42 -235 -6 -43 -43 -257 -59 -345 -13
-71 -19 -107 -45 -275 -6 -38 -18 -98 -26 -132 -8 -34 -14 -76 -14 -95 0 -18
-9 -70 -20 -116 -11 -46 -20 -97 -20 -114 0 -16 -6 -60 -14 -97 -16 -70 -29
-144 -51 -281 -34 -215 -41 -251 -81 -465 -9 -49 -20 -121 -25 -158 -4 -38
-12 -83 -18 -100 -5 -18 -13 -59 -16 -92 -4 -33 -13 -85 -21 -116 -8 -31 -14
-70 -14 -85 0 -16 -6 -60 -14 -99 -8 -38 -24 -126 -36 -195 -11 -69 -26 -150
-32 -180 -5 -30 -14 -82 -18 -115 -4 -33 -14 -94 -23 -135 -18 -83 -31 -165
-48 -285 -6 -44 -16 -91 -22 -105 l-12 -25 -1705 0 -1705 0 -12 25 c-6 14 -16
61 -22 105 -17 123 -30 201 -52 302 -10 50 -19 107 -19 127 0 19 -5 47 -11 63
-6 15 -15 65 -20 110 -5 45 -14 93 -19 105 -5 13 -14 61 -20 108 -5 47 -15
110 -20 140 -22 110 -32 167 -45 250 -7 47 -19 117 -25 155 -6 39 -17 99 -25
135 -8 36 -17 88 -20 115 -4 28 -12 82 -20 120 -13 67 -20 106 -50 295 -17
108 -33 197 -50 285 -13 70 -27 154 -46 275 -5 36 -17 94 -25 130 -8 36 -14
79 -14 95 0 17 -7 57 -15 88 -8 32 -19 93 -25 135 -5 42 -14 100 -19 127 -5
28 -19 106 -31 175 -11 69 -27 157 -36 195 -8 39 -14 84 -14 100 0 17 -5 46
-10 65 -6 19 -17 76 -25 125 -24 158 -36 228 -50 300 -8 39 -17 95 -20 125 -4
30 -11 69 -16 86 -5 17 -14 65 -19 105 -5 41 -12 84 -16 97 l-6 22 2522 0
2522 0 -6 -22z"/>
<path d="M2585 4837 c-47 -14 -97 -56 -131 -109 -20 -32 -24 -50 -24 -121 0
-45 7 -137 15 -202 8 -66 15 -148 15 -182 0 -34 7 -111 15 -171 8 -60 19 -171
25 -248 10 -160 26 -349 40 -479 6 -49 15 -151 20 -225 6 -74 17 -189 25 -255
9 -66 15 -154 16 -195 0 -41 5 -102 9 -135 5 -33 14 -118 20 -190 5 -71 17
-200 25 -285 20 -213 35 -387 45 -504 6 -65 14 -104 24 -115 9 -10 16 -22 16
-27 0 -16 53 -63 95 -84 55 -28 142 -27 192 2 53 30 105 92 120 141 14 44 10
127 -23 442 -8 77 -18 203 -24 280 -6 77 -14 172 -20 210 -5 39 -9 100 -10
136 0 36 -7 115 -15 175 -9 60 -20 177 -26 259 -5 83 -13 177 -18 210 -5 33
-10 95 -10 139 -1 43 -8 124 -16 180 -8 55 -19 164 -24 241 -6 77 -15 191 -20
253 -6 61 -16 163 -22 225 -5 61 -16 189 -24 282 -13 167 -30 241 -60 272 -8
8 -15 17 -15 21 0 11 -61 45 -105 59 -47 15 -76 15 -130 0z"/>
<path d="M3943 4837 c-55 -16 -115 -71 -142 -131 l-21 -49 0 -1590 0 -1590 24
-51 c71 -149 240 -182 364 -72 13 12 35 44 48 72 l24 51 0 1590 0 1590 -21 49
c-28 62 -88 116 -147 131 -56 15 -73 15 -129 0z"/>
<path d="M5305 4837 c-44 -13 -91 -42 -117 -72 -32 -36 -56 -145 -67 -305 -6
-85 -15 -200 -21 -255 -19 -199 -31 -343 -41 -480 -5 -77 -16 -186 -24 -241
-8 -56 -15 -132 -16 -170 0 -38 -4 -100 -9 -139 -5 -38 -14 -137 -20 -220 -6
-82 -15 -184 -21 -225 -6 -41 -14 -136 -19 -210 -5 -74 -13 -173 -19 -220 -6
-47 -15 -143 -21 -215 -11 -147 -25 -296 -41 -466 -12 -134 -4 -180 45 -242
103 -131 299 -112 376 36 14 27 24 72 30 141 5 55 14 135 19 176 6 41 11 107
11 145 0 39 7 122 15 185 8 63 19 178 25 255 6 77 15 167 20 200 4 33 9 94 9
135 1 41 7 129 16 195 8 66 19 181 25 255 5 74 14 178 20 230 18 181 31 336
40 474 6 77 17 188 25 248 8 60 15 137 15 171 0 35 7 117 15 182 23 184 20
267 -10 318 -36 62 -84 102 -137 115 -55 14 -70 14 -123 -1z"/>
</g>
</svg>
